<svg width="24" height="25" viewBox="0 0 24 25" fill="none" xmlns="http://www.w3.org/2000/svg">
    <path opacity="0.1" fill-rule="evenodd" clip-rule="evenodd" d="M0 12.6123C0 5.98489 5.37258 0.612305 12 0.612305C18.6274 0.612305 24 5.98489 24 12.6123C24 19.2397 18.6274 24.6123 12 24.6123C5.37258 24.6123 0 19.2397 0 12.6123Z" fill="white"/>
    <path fill-rule="evenodd" clip-rule="evenodd" d="M18.4001 12.6034C18.4001 13.0362 18.356 13.4684 18.2695 13.8898C18.1851 14.3011 18.0601 14.7049 17.8963 15.0909C17.7363 15.4701 17.5379 15.8355 17.306 16.1762C17.0776 16.5149 16.8144 16.8325 16.5253 17.1221C16.2356 17.4105 15.9169 17.6729 15.5784 17.9023C15.2365 18.1326 14.8706 18.3307 14.4912 18.4915C14.1046 18.6544 13.6999 18.7792 13.2889 18.8634C12.867 18.9502 12.4333 18.9945 11.9998 18.9945C11.566 18.9945 11.1323 18.9502 10.711 18.8634C10.2994 18.7792 9.89471 18.6544 9.50844 18.4915C9.12905 18.3307 8.76277 18.1326 8.42088 17.9023C8.08243 17.6729 7.76366 17.4105 7.47458 17.1221C7.1852 16.8325 6.92205 16.5149 6.69329 16.1762C6.46265 15.8355 6.26388 15.47 6.10326 15.0909C5.93948 14.7049 5.81418 14.301 5.72948 13.8898C5.64386 13.4684 5.6001 13.0362 5.6001 12.6034C5.6001 12.1703 5.64384 11.7371 5.72951 11.3167C5.8142 10.9054 5.9395 10.501 6.10328 10.1156C6.2639 9.73614 6.46268 9.37041 6.69332 9.02962C6.92207 8.69073 7.18523 8.37365 7.47461 8.08373C7.76369 7.79537 8.08245 7.53357 8.42091 7.30452C8.76279 7.07327 9.12908 6.87513 9.50846 6.71409C9.89474 6.55085 10.2994 6.42573 10.711 6.3421C11.1323 6.25598 11.5661 6.21228 11.9998 6.21228C12.4333 6.21228 12.8671 6.25598 13.2889 6.3421C13.6999 6.42575 14.1046 6.55087 14.4912 6.71409C14.8706 6.8751 15.2366 7.07327 15.5784 7.30452C15.9169 7.53357 16.2357 7.79537 16.5254 8.08373C16.8144 8.37365 17.0776 8.69073 17.306 9.02962C17.5379 9.37041 17.7363 9.73617 17.8963 10.1156C18.0601 10.501 18.1851 10.9054 18.2695 11.3167C18.356 11.7371 18.4001 12.1703 18.4001 12.6034ZM9.66779 7.66682C8.14363 8.38552 7.00607 9.78794 6.65136 11.4781C6.79545 11.4793 9.07307 11.5081 11.6973 10.8118C10.7513 9.13352 9.74061 7.76389 9.66779 7.66682ZM12.1501 11.6522C9.33589 12.4935 6.63543 12.433 6.53856 12.4293C6.53698 12.4879 6.53417 12.5447 6.53417 12.6034C6.53417 14.0055 7.06389 15.2837 7.93456 16.2502C7.93268 16.2474 9.4284 13.5976 12.3779 12.6452C12.4492 12.6215 12.5217 12.6003 12.5936 12.5797C12.4564 12.2695 12.3067 11.9587 12.1501 11.6522ZM15.6094 8.50722C14.6471 7.65994 13.3836 7.146 11.9998 7.146C11.5557 7.146 11.1247 7.19968 10.7119 7.29891C10.7938 7.40878 11.8204 8.76874 12.7551 10.4826C14.8174 9.71055 15.5959 8.52718 15.6094 8.50722ZM12.9661 13.4841C12.9539 13.4881 12.9418 13.4916 12.9299 13.4959C9.70507 14.6185 8.65196 16.8808 8.64057 16.9055C9.56845 17.6261 10.7323 18.0608 11.9998 18.0608C12.7567 18.0608 13.4777 17.9069 14.1337 17.6283C14.0527 17.1514 13.7352 15.48 12.9661 13.4841ZM15.054 17.1296C16.2812 16.3026 17.1528 14.9895 17.396 13.4684C17.2835 13.4322 15.7543 12.9488 13.9902 13.2313C14.7071 15.1985 14.9984 16.8007 15.054 17.1296ZM13.1758 11.2958C13.3027 11.5561 13.4255 11.821 13.539 12.0872C13.5793 12.1827 13.6187 12.2764 13.6571 12.37C15.5347 12.134 17.3845 12.531 17.4635 12.5472C17.451 11.2534 16.9876 10.066 16.2207 9.13635C16.2104 9.15098 15.3338 10.4158 13.1758 11.2958Z" fill="white"/>
</svg>
