<svg width="16" height="17" viewBox="0 0 16 17" fill="none" xmlns="http://www.w3.org/2000/svg">
    <path d="M7.67726 1.45368C4.13726 1.62035 1.34459 4.54701 1.35526 8.06501C1.35701 9.10054 1.60494 10.1208 2.07859 11.0417L1.37326 14.4423C1.36465 14.4849 1.3669 14.5289 1.37981 14.5703C1.39271 14.6117 1.41585 14.6492 1.44708 14.6793C1.47832 14.7094 1.51664 14.7311 1.5585 14.7425C1.60036 14.7539 1.64442 14.7545 1.68659 14.7443L5.04259 13.955C5.93144 14.3943 6.90722 14.6293 7.89859 14.643C11.5166 14.6983 14.5326 11.8463 14.6453 8.25635C14.7666 4.40635 11.5673 1.26901 7.67726 1.45301V1.45368ZM11.6819 11.6983C11.1982 12.1803 10.6242 12.5621 9.99273 12.8217C9.36124 13.0814 8.68472 13.2139 8.00192 13.2117C7.1986 13.2141 6.40571 13.0297 5.68592 12.673L5.21859 12.4417L3.16059 12.9257L3.59392 10.8383L3.36326 10.3903C2.98932 9.66551 2.79541 8.86129 2.79792 8.04568C2.79792 6.66568 3.33926 5.36768 4.32192 4.39235C5.30139 3.42281 6.62376 2.87877 8.00192 2.87835C9.39259 2.87835 10.6993 3.41568 11.6819 4.39168C12.1661 4.86877 12.5503 5.43758 12.812 6.06486C13.0738 6.69214 13.208 7.3653 13.2066 8.04501C13.2066 9.41301 12.6566 10.7317 11.6819 11.699V11.6983Z" fill="white"/>
    <path d="M11.2279 9.47568L9.9406 9.10901C9.85753 9.08517 9.76957 9.0841 9.68595 9.10591C9.60232 9.12773 9.5261 9.17162 9.46526 9.23301L9.1506 9.55168C9.08549 9.61762 9.00238 9.66292 8.91167 9.68189C8.82097 9.70086 8.72668 9.69267 8.6406 9.65834C8.03193 9.41368 6.7506 8.28301 6.42326 7.71701C6.37738 7.63707 6.35642 7.54524 6.36307 7.4533C6.36972 7.36137 6.40368 7.27352 6.4606 7.20101L6.73526 6.84768C6.78814 6.77998 6.8216 6.69917 6.83205 6.61391C6.8425 6.52864 6.82956 6.44214 6.7946 6.36368L6.25326 5.14768C6.22265 5.07971 6.17668 5.01977 6.11898 4.97257C6.06129 4.92538 5.99343 4.8922 5.92074 4.87566C5.84806 4.85912 5.77253 4.85967 5.70009 4.87725C5.62765 4.89484 5.56027 4.92898 5.50326 4.97701C5.14393 5.27901 4.71726 5.73701 4.66593 6.24568C4.5746 7.14101 4.96126 8.26968 6.42393 9.62568C8.11393 11.1917 9.46793 11.399 10.3486 11.1863C10.8486 11.0663 11.2486 10.5843 11.4999 10.1903C11.5401 10.1278 11.5651 10.0566 11.5728 9.98264C11.5805 9.90866 11.5707 9.8339 11.5442 9.76439C11.5178 9.69487 11.4754 9.63254 11.4204 9.58239C11.3655 9.53225 11.2996 9.4957 11.2279 9.47568Z" fill="white"/>
</svg>
