<svg width="24" height="25" viewBox="0 0 24 25" fill="none" xmlns="http://www.w3.org/2000/svg">
    <path opacity="0.1" fill-rule="evenodd" clip-rule="evenodd" d="M0 12.6123C0 5.98489 5.37258 0.612305 12 0.612305C18.6274 0.612305 24 5.98489 24 12.6123C24 19.2397 18.6274 24.6123 12 24.6123C5.37258 24.6123 0 19.2397 0 12.6123Z" fill="white"/>
    <path fill-rule="evenodd" clip-rule="evenodd" d="M12.0007 6.21228C10.2625 6.21228 10.0444 6.21988 9.36174 6.25095C8.6804 6.28215 8.21533 6.39002 7.80839 6.54828C7.38745 6.71175 7.03038 6.93042 6.67464 7.28629C6.31864 7.64203 6.09997 7.9991 5.93597 8.4199C5.7773 8.82697 5.6693 9.29218 5.63863 9.97325C5.6081 10.6559 5.6001 10.8742 5.6001 12.6123C5.6001 14.3505 5.60783 14.568 5.63876 15.2506C5.6701 15.932 5.77797 16.3971 5.9361 16.804C6.0997 17.2249 6.31837 17.582 6.67424 17.9377C7.02985 18.2937 7.38692 18.5129 7.80759 18.6764C8.21479 18.8347 8.68 18.9425 9.3612 18.9737C10.0439 19.0048 10.2619 19.0124 11.9999 19.0124C13.7382 19.0124 13.9557 19.0048 14.6383 18.9737C15.3197 18.9425 15.7853 18.8347 16.1925 18.6764C16.6133 18.5129 16.9698 18.2937 17.3254 17.9377C17.6814 17.582 17.9001 17.2249 18.0641 16.8041C18.2214 16.3971 18.3294 15.9318 18.3614 15.2508C18.3921 14.5681 18.4001 14.3505 18.4001 12.6123C18.4001 10.8742 18.3921 10.6561 18.3614 9.97339C18.3294 9.29205 18.2214 8.82697 18.0641 8.42004C17.9001 7.9991 17.6814 7.64203 17.3254 7.28629C16.9694 6.93029 16.6134 6.71162 16.1921 6.54828C15.7841 6.39002 15.3187 6.28215 14.6374 6.25095C13.9547 6.21988 13.7374 6.21228 11.9987 6.21228H12.0007ZM11.4265 7.36561C11.5969 7.36534 11.7871 7.36561 12.0007 7.36561C13.7095 7.36561 13.912 7.37174 14.5868 7.40241C15.2108 7.43094 15.5495 7.53521 15.7751 7.62281C16.0738 7.73881 16.2867 7.87748 16.5106 8.10148C16.7346 8.32548 16.8733 8.53882 16.9895 8.83749C17.0771 9.06283 17.1815 9.4015 17.2099 10.0255C17.2406 10.7002 17.2473 10.9028 17.2473 12.6109C17.2473 14.3189 17.2406 14.5215 17.2099 15.1962C17.1814 15.8202 17.0771 16.1589 16.9895 16.3842C16.8735 16.6829 16.7346 16.8956 16.5106 17.1194C16.2866 17.3434 16.0739 17.4821 15.7751 17.5981C15.5498 17.6861 15.2108 17.7901 14.5868 17.8187C13.9122 17.8493 13.7095 17.856 12.0007 17.856C10.2917 17.856 10.0892 17.8493 9.41451 17.8187C8.7905 17.7899 8.45183 17.6856 8.2261 17.598C7.92743 17.482 7.71409 17.3433 7.49009 17.1193C7.26609 16.8953 7.12742 16.6825 7.01115 16.3837C6.92355 16.1584 6.81915 15.8197 6.79075 15.1957C6.76008 14.521 6.75395 14.3183 6.75395 12.6093C6.75395 10.9002 6.76008 10.6986 6.79075 10.0239C6.81928 9.3999 6.92355 9.06123 7.01115 8.83562C7.12715 8.53695 7.26609 8.32362 7.49009 8.09962C7.71409 7.87561 7.92743 7.73694 8.2261 7.62068C8.4517 7.53268 8.7905 7.42867 9.41451 7.40001C10.0049 7.37334 10.2337 7.36534 11.4265 7.36401V7.36561ZM15.417 8.42829C14.993 8.42829 14.649 8.77189 14.649 9.19603C14.649 9.62003 14.993 9.96404 15.417 9.96404C15.841 9.96404 16.185 9.62003 16.185 9.19603C16.185 8.77202 15.841 8.42829 15.417 8.42829ZM12.0007 9.32563C10.1856 9.32563 8.71401 10.7972 8.71401 12.6123C8.71401 14.4274 10.1856 15.8984 12.0007 15.8984C13.8158 15.8984 15.2869 14.4274 15.2869 12.6123C15.2869 10.7972 13.8158 9.32563 12.0007 9.32563ZM12.0007 10.479C13.1788 10.479 14.134 11.4341 14.134 12.6123C14.134 13.7905 13.1788 14.7457 12.0007 14.7457C10.8224 14.7457 9.86733 13.7905 9.86733 12.6123C9.86733 11.4341 10.8224 10.479 12.0007 10.479Z" fill="white"/>
</svg>
