<svg width="24" height="25" viewBox="0 0 24 25" fill="none" xmlns="http://www.w3.org/2000/svg">
    <path opacity="0.1" fill-rule="evenodd" clip-rule="evenodd" d="M0 12.6123C0 5.98489 5.37258 0.612305 12 0.612305C18.6274 0.612305 24 5.98489 24 12.6123C24 19.2397 18.6274 24.6123 12 24.6123C5.37258 24.6123 0 19.2397 0 12.6123Z" fill="white"/>
    <path fill-rule="evenodd" clip-rule="evenodd" d="M11.6406 10.366L11.6658 10.7812L11.2461 10.7304C9.71843 10.5355 8.38383 9.87451 7.25067 8.76442L6.69668 8.2136L6.55399 8.62036C6.25181 9.52708 6.44487 10.4846 7.0744 11.1287C7.41015 11.4846 7.33461 11.5354 6.75544 11.3236C6.55399 11.2558 6.37772 11.2049 6.36093 11.2304C6.30218 11.2897 6.50363 12.0608 6.66311 12.3659C6.88134 12.7896 7.32621 13.2048 7.81305 13.4506L8.22434 13.6455L7.73751 13.6539C7.26746 13.6539 7.25067 13.6624 7.30103 13.8404C7.46891 14.3912 8.13201 14.9759 8.87066 15.2301L9.39108 15.408L8.93781 15.6792C8.26631 16.069 7.4773 16.2893 6.68829 16.3063C6.31057 16.3148 6 16.3487 6 16.3741C6 16.4588 7.02404 16.9334 7.61999 17.1198C9.40786 17.6706 11.5315 17.4333 13.1263 16.4927C14.2595 15.8233 15.3926 14.4929 15.9214 13.2048C16.2068 12.5184 16.4922 11.2643 16.4922 10.6626C16.4922 10.2728 16.5174 10.2219 16.9874 9.75588C17.2644 9.48471 17.5246 9.18812 17.575 9.10338C17.6589 8.94237 17.6505 8.94237 17.2224 9.08643C16.509 9.34065 16.4083 9.30675 16.7608 8.92542C17.021 8.65425 17.3316 8.16276 17.3316 8.0187C17.3316 7.99328 17.2057 8.03565 17.063 8.11192C16.9119 8.19666 16.5761 8.32377 16.3243 8.40003L15.8711 8.54409L15.4598 8.26445C15.2331 8.11192 14.9142 7.94244 14.7463 7.89159C14.3182 7.77296 13.6635 7.7899 13.2774 7.92549C12.2282 8.30682 11.5651 9.28981 11.6406 10.366Z" fill="white"/>
</svg>
