<svg width="24" height="25" viewBox="0 0 24 25" fill="none" xmlns="http://www.w3.org/2000/svg">
    <path opacity="0.1" fill-rule="evenodd" clip-rule="evenodd" d="M0 12.6123C0 5.98489 5.37258 0.612305 12 0.612305C18.6274 0.612305 24 5.98489 24 12.6123C24 19.2397 18.6274 24.6123 12 24.6123C5.37258 24.6123 0 19.2397 0 12.6123Z" fill="white"/>
    <path fill-rule="evenodd" clip-rule="evenodd" d="M17.0009 8.48694C17.5517 8.63808 17.9854 9.08339 18.1326 9.64889C18.4001 10.6738 18.4001 12.8123 18.4001 12.8123C18.4001 12.8123 18.4001 14.9507 18.1326 15.9757C17.9854 16.5412 17.5517 16.9865 17.0009 17.1377C16.0028 17.4123 12.0001 17.4123 12.0001 17.4123C12.0001 17.4123 7.99741 17.4123 6.99923 17.1377C6.44846 16.9865 6.01472 16.5412 5.86752 15.9757C5.6001 14.9507 5.6001 12.8123 5.6001 12.8123C5.6001 12.8123 5.6001 10.6738 5.86752 9.64889C6.01472 9.08339 6.44846 8.63808 6.99923 8.48694C7.99741 8.21228 12.0001 8.21228 12.0001 8.21228C12.0001 8.21228 16.0028 8.21228 17.0009 8.48694ZM10.8001 11.0122V15.0122L14.0001 13.0123L10.8001 11.0122Z" fill="white"/>
</svg>
